<?xml version="1.0"?>
<svg width="233.276118" height="300" viewBox="0 0 300 385.80889" xmlns="http://www.w3.org/2000/svg">
  <defs
     id="defs9721">
    <g
       transform="translate(328.96072,185.2158)">
      <rect
         x="-328.96072"
         y="-185.21581"
         width="857.19745"
         height="1212.3217"
         fill="#000000"
         fill-opacity="0"
         id="rect9673" />
      <clipPath
         id="clip-4">
        <path
           clip-rule="nonzero"
           d="M 0.800781,0 H 397.27734 V 841.89062 H 0.800781 Z m 0,0"
           id="path9675" />
      </clipPath>
      <g
         clip-path="url(#clip-4)"
         id="g9680">
        <rect
           x="-328.96072"
           y="-185.21581"
           width="857.19745"
           height="1212.3217"
           fill="#ffffff"
           fill-opacity="1"
           id="rect9678" />
      </g>
    </g>
    <clipPath
       id="clip-6-3">
      <path
         clip-rule="nonzero"
         d="M 56.691406,619.03906 H 154.02344 V 744.21094 H 56.691406 Z m 0,0"
         id="path9718-6" />
    </clipPath>
  </defs>
  <g
     clip-path="url(#clip-6-3)"
     id="g9737"
     transform="matrix(3.0822329,0,0,3.0822329,-174.73612,-1908.0226)">
    <path
       fill-rule="nonzero"
       fill="#ef2c27"
       fill-opacity="1"
       d="m 154.02344,734.55859 c 0,5.32813 -4.32032,9.65235 -9.65235,9.65235 H 66.34375 c -5.332031,0 -9.652344,-4.32422 -9.652344,-9.65235 V 628.69141 c 0,-5.32813 4.320313,-9.65235 9.652344,-9.65235 h 78.02734 c 5.33203,0 9.65235,4.32422 9.65235,9.65235 z m 0,0"
       id="path9735" />
  </g>
  <path
     fill-rule="nonzero"
     fill="#ffffff"
     d="m 34.623551,327.03242 c 0,-2.21206 -1.402758,-2.93142 -3.68673,-3.41696 -2.140102,-0.43167 -2.625677,-0.91721 -2.625677,-1.92433 0,-1.07906 0.755332,-1.87037 2.373899,-1.87037 1.564612,0 2.373896,0.89918 2.373896,2.24803 h 1.294849 c 0,-2.23002 -1.402752,-3.61481 -3.68673,-3.61481 -2.212041,0 -3.632784,1.29488 -3.632784,3.27308 0,1.99627 1.31284,2.78758 3.632784,3.23718 2.301963,0.44958 2.697611,1.11503 2.697611,2.06818 0,1.31281 -0.88122,2.14012 -2.661638,2.14012 -1.582597,0 -2.661647,-0.97121 -2.661647,-2.51782 h -1.330819 c 0,2.31994 1.582598,3.88457 3.992466,3.88457 2.319938,0 3.92052,-1.24091 3.92052,-3.50687 m 4.837713,-5.52111 c -2.194054,0 -3.884557,2.05015 -3.884557,4.54996 0,2.46381 1.690503,4.47802 3.884557,4.47802 2.212038,0 3.884556,-2.01421 3.884556,-4.47802 0,-2.49981 -1.672518,-4.54996 -3.884556,-4.54996 m 0,7.7151 c -1.438722,0 -2.589705,-1.42072 -2.589705,-3.16514 0,-1.78045 1.150983,-3.25512 2.589705,-3.25512 1.438724,0 2.62568,1.47467 2.62568,3.25512 0,1.74442 -1.186956,3.16514 -2.62568,3.16514 m 11.653673,-7.49935 h -1.276865 v 5.26936 c 0,1.29484 -0.863235,2.24799 -2.014214,2.24799 -1.222919,0 -1.906312,-0.89918 -1.906312,-2.26599 v -5.25136 h -1.258883 v 5.17945 c 0,2.12212 1.079038,3.63278 2.985353,3.63278 0.935171,0 1.708484,-0.44963 2.248001,-1.151 v 0.93518 h 1.22292 z m 5.341272,7.30157 c -0.93518,0.0539 -1.780427,-0.32385 -1.780427,-1.83439 v -4.10039 h 1.744454 v -1.36679 h -1.744454 v -1.83433 h -1.258886 v 1.83433 h -1.061059 v 1.36679 h 1.061059 v 4.10039 c 0,2.19405 1.240901,3.38102 3.039313,3.12923 z m 7.769113,-3.86657 c 0,-2.14009 -1.079047,-3.65075 -2.967373,-3.65075 -0.917187,0 -1.672519,0.4316 -2.212036,1.09703 v -4.69387 h -1.27687 v 12.409 h 1.27687 v -5.25135 c 0,-1.27688 0.863235,-2.26597 2.0322,-2.26597 1.258876,0 1.888323,0.97109 1.888323,2.28394 v 5.23338 h 1.258886 z m 12.301093,1.79836 1.097034,3.36305 h 1.438725 l -3.866575,-11.58173 h -1.438724 l -3.938512,11.58173 h 1.384774 l 1.115013,-3.36305 z m -0.413627,-1.33079 h -3.363024 l 1.690503,-5.14344 z m 5.467163,-4.19026 c 0,-0.59349 0.108002,-1.36682 0.485569,-1.78045 0.305727,-0.30576 0.719369,-0.41364 1.312822,-0.37767 v -1.27688 c -0.899208,-0.12575 -1.618573,0.09 -2.158075,0.64746 -0.593478,0.59345 -0.899207,1.5286 -0.899207,2.78754 v 0.34151 h -1.043077 v 1.33082 h 1.043077 v 7.21162 h 1.258891 v -7.21162 h 1.762415 v -1.33082 h -1.762415 z m 6.708046,0.09 c -0.881207,-0.10819 -1.942282,0.25182 -2.517759,1.16897 v -0.97118 h -1.240913 v 8.59641 h 1.276867 v -4.96363 c 0,-1.72648 1.15098,-2.49975 2.481805,-2.42785 z m 2.535759,-2.78754 h -1.27687 v 1.69048 h 1.27687 z m 0,2.98533 h -1.27687 v 8.59641 h 1.27687 z m 8.650345,5.93477 h -1.366776 c -0.431639,0.93515 -1.222937,1.56458 -2.230054,1.56458 -1.420755,0 -2.607714,-1.4207 -2.607714,-3.18318 0,-1.76245 1.186959,-3.23711 2.607714,-3.23711 1.007117,0 1.798415,0.64742 2.230054,1.58263 h 1.366776 c -0.521572,-1.72651 -1.87037,-2.87748 -3.59683,-2.87748 -2.12212,0 -3.884535,2.05018 -3.884535,4.53196 0,2.48181 1.762415,4.49605 3.884535,4.49605 1.72646,0 3.093236,-1.15099 3.59683,-2.87745 m 6.887889,2.66164 h 1.25887 c -0.10801,-0.32389 -0.21576,-0.95318 -0.21576,-1.40279 V 324.191 c 0,-1.61857 -1.04307,-2.67963 -3.12922,-2.67963 -1.97825,0 -3.2551,1.11503 -3.34505,2.84148 h 1.33085 c 0.12575,-1.24091 1.18693,-1.54663 2.0142,-1.54663 1.31285,0 1.88833,0.52151 1.88833,1.2229 0,0.6834 -0.62946,1.04309 -2.51776,1.169 -1.99626,0.10819 -3.14724,0.91718 -3.14724,2.6796 0,1.85233 1.43876,2.66166 3.02133,2.66166 1.20494,0 2.10414,-0.44963 2.66165,-1.20496 0,0.41363 0.09,0.75533 0.17975,0.98915 m -0.198,-3.30909 c -0.036,1.56463 -1.27687,2.19409 -2.58974,2.19409 -1.00707,0 -1.81637,-0.41364 -1.81637,-1.33085 0,-0.71936 0.37769,-1.36678 2.06819,-1.49266 0.89919,-0.0539 1.8164,-0.18 2.33792,-0.68339 z m 9.11794,-1.85236 c 0,-2.14006 -1.09703,-3.65075 -2.98538,-3.65075 -0.91718,0 -1.72646,0.44957 -2.248,1.16897 v -0.95318 h -1.24089 v 8.59641 h 1.27684 v -5.25136 c 0,-1.27684 0.86323,-2.26599 2.03221,-2.26599 1.24092,0 1.9063,0.98915 1.9063,2.28396 v 5.23339 h 1.25892 z m 14.99871,-6.42029 h -1.25889 v 9.40562 l -5.61102,-9.40562 h -1.42078 v 11.58174 h 1.27689 v -9.42365 l 5.61102,9.42365 h 1.40278 z m 7.19363,11.58174 h 1.25888 c -0.10819,-0.32389 -0.21576,-0.95318 -0.21576,-1.40279 V 324.191 c 0,-1.61857 -1.06106,-2.67963 -3.12923,-2.67963 -1.97825,0 -3.25513,1.11503 -3.36302,2.84148 h 1.3308 c 0.14394,-1.24091 1.20495,-1.54663 2.01422,-1.54663 1.31284,0 1.88836,0.52151 1.88836,1.2229 0,0.6834 -0.61146,1.04309 -2.49979,1.169 -1.99627,0.10819 -3.14723,0.91718 -3.14723,2.6796 0,1.85233 1.42078,2.66166 3.00335,2.66166 1.20491,0 2.10412,-0.44963 2.66164,-1.20496 0.0154,0.41363 0.09,0.75533 0.19757,0.98915 m -0.21576,-3.30909 c -0.037,1.56463 -1.27688,2.19409 -2.58969,2.19409 -0.98915,0 -1.79843,-0.41364 -1.79843,-1.33085 0,-0.71936 0.37767,-1.36678 2.05022,-1.49266 0.91715,-0.0539 1.83439,-0.18 2.3379,-0.68339 z m 6.22251,2.01424 c -0.93522,0.0539 -1.78043,-0.32382 -1.78043,-1.83439 v -4.10039 h 1.76243 v -1.36678 h -1.76243 v -1.83436 h -1.27663 v 1.83436 h -1.04305 v 1.36678 h 1.04305 v 4.10039 c 0,2.19406 1.25888,3.38099 3.0573,3.12924 z m 2.62563,-10.28689 h -1.27685 v 1.69048 h 1.27685 z m 0,2.98533 h -1.27685 v 8.59641 h 1.27685 z m 5.07153,-0.21576 c -2.19402,0 -3.88457,2.05015 -3.88457,4.54996 0,2.46382 1.69055,4.47805 3.88457,4.47805 2.21203,0 3.88454,-2.01423 3.88454,-4.47805 0,-2.49981 -1.67251,-4.54996 -3.88454,-4.54996 m 0,7.71511 c -1.42075,0 -2.58972,-1.4207 -2.58972,-3.16515 0,-1.78042 1.16897,-3.25508 2.58972,-3.25508 1.43873,0 2.60766,1.47466 2.60766,3.25508 0,1.74445 -1.16893,3.16515 -2.60766,3.16515 m 11.52774,-4.06436 c 0,-2.14009 -1.07903,-3.65075 -2.96733,-3.65075 -0.91718,0 -1.72645,0.44957 -2.24796,1.16894 v -0.95318 h -1.24094 v 8.59641 h 1.27688 v -5.25136 c 0,-1.27684 0.86321,-2.26593 2.03214,-2.26593 1.22291,0 1.88836,0.98909 1.88836,2.28393 v 5.23336 h 1.25885 z m 7.19365,5.16142 h 1.25888 c -0.12576,-0.32385 -0.23394,-0.95318 -0.23394,-1.40276 V 324.191 c 0,-1.61857 -1.06106,-2.6796 -3.11121,-2.6796 -1.99624,0 -3.27314,1.11503 -3.36308,2.84145 h 1.33084 c 0.12576,-1.24091 1.20494,-1.54657 2.01424,-1.54657 1.31279,0 1.8883,0.52151 1.8883,1.2229 0,0.6834 -0.61148,1.04303 -2.49978,1.16894 -2.01421,0.10819 -3.16521,0.91721 -3.16521,2.6796 0,1.85236 1.43876,2.66169 3.02136,2.66169 1.20491,0 2.10412,-0.44966 2.66163,-1.20496 0,0.41363 0.0718,0.7553 0.19757,0.98912 m -0.21575,-3.30906 c -0.037,1.5646 -1.27685,2.19406 -2.5897,2.19406 -1.00712,0 -1.81639,-0.41364 -1.81639,-1.33085 0,-0.71933 0.37767,-1.36675 2.06812,-1.49266 0.89924,-0.0539 1.81639,-0.18 2.33797,-0.68336 z m 4.40608,-9.09995 h -1.25888 v 12.40901 h 1.25888 z m 14.54909,9.02801 c 0,-1.20494 -0.46757,-2.28399 -1.60057,-2.7156 0.91718,-0.52151 1.31282,-1.49269 1.31282,-2.3559 0,-1.8883 -1.15094,-3.12924 -2.98533,-3.12924 h -4.49599 v 11.58174 h 4.51402 c 2.01418,0 3.25505,-1.4747 3.25505,-3.381 m -6.49223,-6.85196 h 3.21915 c 1.02506,0 1.69048,0.52155 1.69048,1.76249 0,1.27681 -0.86318,1.74445 -1.65451,1.74445 h -3.25512 z m 5.21539,6.8699 c 0,1.24094 -0.8093,1.99624 -1.90633,1.99624 h -3.30906 v -3.99242 h 3.25512 c 1.15097,0 1.96027,0.55752 1.96027,1.99618 m 3.86657,-9.04595 h -1.27691 v 12.40901 h 1.27691 z m 5.23335,3.59684 c -2.19406,0 -3.88457,2.05015 -3.88457,4.54996 0,2.46382 1.69051,4.47805 3.88457,4.47805 2.21203,0 3.8846,-2.01423 3.8846,-4.47805 0,-2.49981 -1.67257,-4.54996 -3.8846,-4.54996 m 0,7.71511 c -1.42075,0 -2.58969,-1.4207 -2.58969,-3.16515 0,-1.78042 1.16894,-3.25508 2.58969,-3.25508 1.43869,0 2.60769,1.47466 2.60769,3.25508 0,1.74445 -1.169,3.16515 -2.60769,3.16515 m 8.8302,-7.71511 c -2.19409,0 -3.8666,2.05015 -3.8666,4.54996 0,2.46382 1.67251,4.47805 3.8666,4.47805 2.22999,0 3.90254,-2.01423 3.90254,-4.47805 0,-2.49981 -1.67255,-4.54996 -3.90254,-4.54996 m 0,7.71511 c -1.42076,0 -2.57176,-1.4207 -2.57176,-3.16515 0,-1.78042 1.151,-3.25508 2.57176,-3.25508 1.43869,0 2.62563,1.47466 2.62563,3.25508 0,1.74445 -1.18694,3.16515 -2.62563,3.16515 m 12.7327,-11.31195 h -1.25887 v 5.12547 c -0.55752,-0.84524 -1.52867,-1.52863 -2.64367,-1.52863 -2.21205,0 -3.8666,2.05015 -3.8666,4.53196 0,2.48182 1.65455,4.51399 3.8666,4.51399 1.15097,0 2.14012,-0.71933 2.67963,-1.61854 v 1.38476 h 1.22291 z m -1.25887,8.1468 c 0,1.74445 -1.20494,3.18315 -2.64367,3.18315 -1.45669,0 -2.58969,-1.4387 -2.58969,-3.18315 0,-1.78042 1.133,-3.21917 2.58969,-3.21917 1.43873,0 2.64367,1.43875 2.64367,3.21917 m 15.19651,0.97115 c 0,-2.21206 -1.40275,-2.93142 -3.68672,-3.41696 -2.12215,-0.43164 -2.60769,-0.91721 -2.60769,-1.92433 0,-1.07906 0.73736,-1.87036 2.3559,-1.87036 1.56461,0 2.39188,0.89918 2.39188,2.24802 h 1.29488 c 0,-2.23002 -1.42076,-3.61478 -3.70476,-3.61478 -2.21205,0 -3.63278,1.29485 -3.63278,3.27306 0,1.99627 1.33085,2.78757 3.63278,3.23717 2.302,0.44958 2.69764,1.11503 2.69764,2.06818 0,1.31282 -0.88121,2.14012 -2.66167,2.14012 -1.58257,0 -2.66166,-0.97118 -2.66166,-2.51782 h -1.33078 c 0,2.31994 1.5826,3.8846 3.99244,3.8846 2.31997,0 3.92054,-1.24093 3.92054,-3.5069 m 7.37344,0.62942 c -0.4316,1.00712 -1.2049,1.58258 -2.30193,1.58258 -1.27691,0 -2.49978,-1.06106 -2.6796,-2.84148 h 6.5102 c 0.0154,-3.05724 -1.9063,-4.89163 -3.92051,-4.89163 -2.14012,0 -3.8666,2.05015 -3.8666,4.53196 0,2.51775 1.72648,4.49605 3.95651,4.49605 1.78042,0 3.11124,-1.04312 3.65072,-2.87748 z m -4.90962,-2.51778 c 0.34151,-1.47469 1.47469,-2.33787 2.51778,-2.33787 1.13297,0 2.19409,0.93515 2.51775,2.33787 z m 11.45589,-3.61475 c -0.89928,-0.10819 -1.9423,0.25182 -2.53579,1.16894 v -0.97118 h -1.2229 v 8.59641 h 1.27684 v -4.9636 c 0,-1.72651 1.15097,-2.49978 2.48185,-2.42781 z m 7.7331,0.19757 h -1.33038 l -2.14012,6.85193 -2.15809,-6.85193 h -1.34878 l 2.82348,8.59638 h 1.36678 z m 2.40991,-2.98533 h -1.27688 v 1.69049 h 1.27688 z m 0,2.98533 h -1.27688 v 8.59638 h 1.27688 z m 8.65025,5.93478 h -1.36678 c -0.41364,0.93515 -1.20491,1.56454 -2.23,1.56454 -1.42072,0 -2.58972,-1.42066 -2.58972,-3.18314 0,-1.76242 1.169,-3.23709 2.58972,-3.23709 1.00709,0 1.79845,0.64739 2.23,1.58257 h 1.36678 c -0.52151,-1.72648 -1.87033,-2.87745 -3.59678,-2.87745 -2.14011,0 -3.88454,2.05018 -3.88454,4.53197 0,2.48184 1.74443,4.49605 3.88454,4.49605 1.72645,0 3.09324,-1.151 3.59678,-2.87745 m 7.08575,0 c -0.43161,1.00712 -1.22291,1.58254 -2.30197,1.58254 -1.27684,0 -2.51775,-1.06103 -2.66163,-2.84145 h 6.49226 c 0.0154,-3.05726 -1.9063,-4.89166 -3.92054,-4.89166 -2.14011,0 -3.8846,2.05018 -3.8846,4.53197 0,2.51775 1.74449,4.49605 3.97451,4.49605 1.78045,0 3.11127,-1.04312 3.65082,-2.87745 z m -4.90966,-2.51781 c 0.32382,-1.47467 1.45669,-2.33788 2.51778,-2.33788 1.133,0 2.19406,0.93515 2.49979,2.33788 z m 0,0"
     id="path9739"
     style="stroke-width:4.60393" />
  <path
     fill-rule="nonzero"
     fill="#ffffff"
     d="m 82.485847,263.88957 c -8.644698,0 -14.255327,4.43071 -14.255327,10.77576 0,7.95845 6.935024,9.98116 13.773729,11.31759 6.838704,1.33642 8.75306,2.78122 8.75306,5.12902 0,3.51569 -4.213992,4.96048 -8.271462,4.96048 -3.744432,0 -8.114942,-2.07089 -8.114942,-6.45342 h -7.043383 c 0,8.90956 7.898221,12.90685 15.158325,12.90685 9.33098,0 15.314845,-4.47889 15.314845,-11.63062 0,-7.57314 -5.550426,-9.76442 -14.351647,-11.5343 -5.658785,-1.16786 -8.175142,-2.07086 -8.175142,-4.63537 0,-2.8294 3.467512,-4.2742 7.211944,-4.2742 4.47887,0 7.151746,2.39595 7.151746,5.59857 h 7.043383 c 0,-5.86345 -4.43071,-12.16036 -14.195129,-12.16036 m 39.743953,30.58154 2.50431,7.41662 h 7.47682 l -12.91889,-37.03497 h -8.92162 l -12.918886,37.03497 h 7.476826 l 2.51635,-7.41662 z m -2.25148,-6.5618 h -10.34233 l 5.16514,-15.21852 z m 45.28233,-23.05655 h -7.10357 v 26.36755 L 143.1071,264.85276 h -8.48816 v 37.03497 h 7.04336 v -26.36754 l 15.11018,26.36754 h 8.48817 z m 34.36208,26.15084 c 0,-4.214 -1.91434,-7.21196 -5.06882,-8.86142 2.2876,-1.66154 3.62403,-4.16585 3.62403,-7.26011 0,-6.18857 -3.7324,-10.02931 -11.16105,-10.02931 h -17.07267 v 37.03497 h 18.04789 c 7.13972,0 11.63062,-4.26217 11.63062,-10.88413 m -12.60584,-19.74556 c 2.67289,0 4.33439,1.58927 4.33439,4.04544 0,2.45613 -1.92639,4.11764 -4.33439,4.11764 h -10.0293 v -8.16308 z m 5.40593,19.46862 c 0,3.63608 -2.66083,4.70765 -5.40593,4.70765 h -10.0293 v -9.55976 h 9.87279 c 3.57585,0 5.56244,1.76988 5.56244,4.85211 m 24.94683,-26.83709 c -8.65673,0 -14.26735,4.43071 -14.26735,10.77576 0,7.95845 6.94704,9.98116 13.78575,11.31759 6.82668,1.33642 8.74102,2.78122 8.74102,5.12902 0,3.51569 -4.21399,4.96048 -8.25942,4.96048 -3.74442,0 -8.12696,-2.07089 -8.12696,-6.45342 h -7.04339 c 0,8.90956 7.89822,12.90685 15.17035,12.90685 9.33099,0 15.31484,-4.47889 15.31484,-11.63062 0,-7.57314 -5.55042,-9.76442 -14.36367,-11.5343 -5.65879,-1.16786 -8.16311,-2.07086 -8.16311,-4.63537 0,-2.8294 3.46752,-4.2742 7.21194,-4.2742 4.46683,0 7.13971,2.39595 7.13971,5.59857 h 7.05542 c 0,-5.86345 -4.43071,-12.16036 -14.19513,-12.16036"
     id="path9741"
     style="stroke-width:3.08223" />
  <path
     fill-rule="nonzero"
     fill="#ffffff"
     fill-opacity="1"
     d="m 148.81407,165.05593 c -0.0721,0.0721 -0.14456,0.15658 -0.21668,0.24073 -0.15658,0.15657 -0.30114,0.3371 -0.4575,0.50567 -0.0247,0.0246 -0.0481,0.0601 -0.0721,0.0962 -0.0721,0.0841 -0.15658,0.18062 -0.24073,0.25275 -0.0361,0.0601 -0.0841,0.12051 -0.12051,0.16859 -0.18062,0.21668 -0.36121,0.44548 -0.5418,0.67424 -0.18062,0.2287 -0.3612,0.45753 -0.52974,0.68629 -0.0601,0.0962 -0.4214,0.61401 -0.45753,0.66219 0.30114,0.21668 0.0123,0.0721 -0.0247,0.0601 -0.0601,0.0721 -0.12051,0.1686 -0.18061,0.26477 -0.0962,0.13253 -0.19264,0.27678 -0.28881,0.43342 -0.10849,0.15658 -0.20466,0.31306 -0.30113,0.4816 -0.0962,0.15658 -0.18062,0.31306 -0.27679,0.4816 -0.18062,0.31306 -0.34915,0.62609 -0.51772,0.95117 -0.0962,0.1686 -0.19264,0.33711 -0.26476,0.49362 -0.0247,0.0721 -0.0721,0.15658 -0.1085,0.22871 -0.1686,0.34915 -0.33713,0.72241 -0.49365,1.08359 -0.0601,0.12051 -0.12051,0.24072 -0.1686,0.3612 -0.0601,0.15658 -0.12051,0.30114 -0.18062,0.44548 -0.0361,0.0962 -0.0721,0.19264 -0.12051,0.30113 -0.0481,0.13254 -0.32508,0.91502 -0.36121,0.99932 -0.36121,1.09564 -0.67424,2.19129 -0.903,3.311 -0.0247,0.0841 -0.0361,0.15658 -0.0481,0.2287 -0.0247,0.0721 -0.0361,0.14456 -0.0481,0.2287 -0.0361,0.18062 -0.0721,0.37326 -0.10849,0.55385 0,0.0601 -0.0247,0.18062 -0.0481,0.36121 -0.0123,0.0481 -0.0247,0.12051 -0.0247,0.18062 l -0.0123,0.0247 c 0,0.0361 -0.0123,0.0841 -0.0123,0.12052 -0.0123,0.12051 -0.0247,0.2287 -0.0481,0.34915 -0.0123,0.0721 -0.0247,0.15658 -0.0361,0.22871 0,0.0841 -0.0247,0.16859 -0.0247,0.24072 -0.0481,0.3612 -0.0721,0.72241 -0.0962,1.07157 -0.0247,0.19264 -0.0361,0.37322 -0.0361,0.56586 -0.0123,0.25275 -0.0361,0.49365 -0.0361,0.74649 v 0.0841 l -0.0123,0.0361 c -0.0123,0.65016 0.0123,1.30033 0.0361,1.9505 0.0481,0.65013 0.0842,1.3003 0.18062,1.93841 0.0481,0.43346 0.12052,0.85486 0.19264,1.28828 0.0481,0.24073 0.0962,0.46955 0.14456,0.71037 0.10849,0.48159 0.21668,0.95114 0.3612,1.42072 0.0601,0.24072 0.12052,0.4816 0.18062,0.72238 0.0841,0.26477 0.18062,0.5418 0.26477,0.80668 0.0481,0.13254 0.0962,0.26477 0.14455,0.39733 0.14456,0.38528 0.28881,0.78258 0.44548,1.15584 0.15658,0.3973 0.32508,0.79463 0.50567,1.16786 0.0721,0.15658 0.14456,0.31306 0.21668,0.45753 l 0.0361,0.0601 c 0.0841,0.1686 0.1686,0.33714 0.25275,0.50567 0.0721,0.1085 0.12051,0.2287 0.16859,0.34919 0.12052,0.19264 0.24073,0.38528 0.34916,0.58994 0.20466,0.3612 0.4214,0.72241 0.65016,1.08359 0.13254,0.21668 0.26477,0.4214 0.39734,0.63814 0.18061,0.25275 0.34915,0.50567 0.52974,0.75851 0.18062,0.24072 0.36121,0.49365 0.55385,0.73443 0.0481,0.0601 0.0962,0.12052 0.14455,0.1686 0.19264,0.25274 0.39733,0.49362 0.58997,0.73444 l 0.0361,0.0361 c 0.0721,0.0841 0.14456,0.18062 0.21669,0.26476 l 0.0481,0.0601 c 0.0601,0.0601 0.10849,0.12051 0.15658,0.18061 0.34915,0.40936 0.72238,0.79464 1.10766,1.17991 0.0481,0.0601 0.10849,0.1085 0.18062,0.1686 0.16859,0.18062 0.34915,0.36121 0.52974,0.52978 0.33713,0.31303 0.66222,0.60199 1.01137,0.90297 0.28881,0.25274 0.58994,0.49365 0.903,0.72241 0.30114,0.24072 0.61402,0.4816 0.92708,0.71036 0.12051,0.0721 0.24072,0.14456 0.34915,0.22871 0.12052,0.0721 0.21668,0.14455 0.30114,0.20466 0.0361,0.0123 0.0841,0.0481 0.0841,0.0481 0.15658,0.0962 0.26477,0.18062 0.34916,0.2287 l 0.0361,0.0247 c 0.0481,0.0481 0.0962,0.0721 0.12052,0.0841 0.0361,0.0247 0.0601,0.0481 0.0962,0.0721 0.25274,0.15657 0.50567,0.31303 0.75851,0.45752 0.0601,0.0247 0.10849,0.0601 0.15658,0.0841 0.31303,0.18062 0.62606,0.34915 0.93909,0.51772 0.63811,0.32508 1.28828,0.6261 1.93845,0.903 -0.15658,0.24073 -0.31303,0.4816 -0.46955,0.72239 -0.45753,0.72241 -3.3953,5.33371 -3.3953,5.33371 l -4.08155,6.33303 c 0,0 -0.24072,-0.40935 -0.55382,-0.903 l -0.0247,-0.0361 c -0.0481,-0.0601 -0.0841,-0.13254 -0.12052,-0.18062 -0.0247,-0.0361 -0.0361,-0.0601 -0.0601,-0.0841 -0.0481,-0.0845 -0.1085,-0.1686 -0.1686,-0.25274 -0.0721,-0.10849 -0.14456,-0.20466 -0.21668,-0.30113 -0.21668,-0.30114 -0.44548,-0.61405 -0.67424,-0.89095 -0.0841,-0.1085 -0.18062,-0.22871 -0.26476,-0.32509 -0.13254,-0.15658 -0.27679,-0.31306 -0.40935,-0.46958 -0.0361,-0.0481 -0.0841,-0.0962 -0.12052,-0.15657 -0.1686,-0.1686 -0.33713,-0.36121 -0.49365,-0.52975 -0.49362,-0.54179 -0.99932,-1.07157 -1.50499,-1.58929 -0.21668,-0.24072 -1.89027,-1.92639 -2.2635,-2.29962 -0.0601,-0.0601 -0.1085,-0.12052 -0.1686,-0.15658 -0.0962,-0.10849 -0.19264,-0.20466 -0.27679,-0.2888 -0.16859,-0.1686 -0.34915,-0.33714 -0.51769,-0.49365 -0.52977,-0.50568 -1.04749,-1.01135 -1.57724,-1.505 -0.0247,-0.0123 -0.0481,-0.0361 -0.0721,-0.0601 l -0.0247,-0.0247 c -0.66222,-0.61404 -1.34848,-1.21606 -2.01069,-1.81805 -0.0481,-0.0361 -0.0721,-0.0481 -0.0962,-0.0721 -0.0247,-0.0123 -0.0601,-0.0481 -0.0601,-0.0481 0,0 -0.0247,-0.0247 0,0 l 0.0601,0.0481 c 0.0247,0.0247 0.0601,0.0601 0.0962,0.0721 -0.0481,-0.0361 -0.1085,-0.0721 -0.15658,-0.12052 -0.30114,-0.25274 -4.17788,-3.5879 -4.49091,-3.85279 -0.56588,-0.45753 -9.75237,-7.77783 -10.36641,-8.25943 l -0.024,-0.0247 c -0.19264,-0.16859 -1.57724,-1.3244 -1.95048,-1.63743 l -0.0602,-0.0481 c 0,0 -0.0602,-0.0601 -0.1204,-0.12051 l -0.0361,-0.0247 c -0.0361,-0.0361 -0.0602,-0.0601 -0.0843,-0.0841 -0.13244,-0.12052 -0.31304,-0.2771 -0.50568,-0.44551 -0.19264,-0.1686 -0.39732,-0.36118 -0.58996,-0.54179 -0.0482,-0.0481 -0.0963,-0.0962 -0.14446,-0.14456 -0.33712,-0.31303 -0.62608,-0.60199 -0.71036,-0.72242 l -0.024,-0.0361 c -0.43344,-0.42137 -0.8428,-0.86688 -1.24012,-1.32437 -0.15651,-0.18062 -0.32508,-0.36121 -0.45752,-0.51772 -0.0361,-0.0601 -0.0843,-0.1085 -0.13244,-0.15658 -0.16857,-0.20466 -0.28896,-0.36121 -0.33712,-0.44548 l -0.012,-0.0247 c 0,0 -0.0482,-0.0721 -0.0602,-0.0962 -0.31304,-0.3973 -0.61404,-0.8187 -0.87892,-1.24011 -0.0843,-0.10849 -0.15652,-0.2287 -0.24081,-0.32508 -0.19264,-0.30113 -0.34916,-0.56587 -0.39733,-0.67424 0,0 -0.21671,-0.43342 -0.31303,-0.61404 -0.13245,-0.24072 -0.26489,-0.52974 -0.4214,-0.84281 -0.0722,-0.16859 -0.15652,-0.3371 -0.22877,-0.51769 -0.0722,-0.13253 -0.12039,-0.27709 -0.18059,-0.4214 -0.16856,-0.40938 -0.31304,-0.83075 -0.40936,-1.20401 l -0.012,-0.0481 c -0.13244,-0.4214 -0.24081,-0.85485 -0.33712,-1.31235 -0.012,-0.0361 -0.024,-0.0721 -0.024,-0.0721 0,0 0,-0.0481 -0.012,-0.0962 0,-0.0361 -0.012,-0.0721 -0.024,-0.0962 -0.012,-0.12052 -0.0361,-0.24073 -0.0602,-0.34916 -0.012,-0.0962 -0.0361,-0.19264 -0.0481,-0.2888 -0.0361,-0.21669 -0.0602,-0.43346 -0.0843,-0.65017 -0.0361,-0.25274 -0.0722,-0.51772 -0.0963,-0.77056 0,-0.0361 0,-0.0481 0,-0.0841 -0.0482,-0.39733 -0.0722,-0.74649 -0.0482,-0.97525 v -0.0361 c 0,-0.0481 0,-0.14455 0,-0.27678 0,-0.57792 0.024,-1.16789 0.0602,-1.74581 0.012,-0.15658 0.024,-0.32508 0.0361,-0.4816 0.0361,-0.45752 0.0843,-0.89095 0.15651,-1.25215 0,0 0.012,-0.1085 0.0482,-0.30114 0,-0.0361 0.024,-0.0962 0.024,-0.0962 0.0722,-0.44548 0.21671,-1.16786 0.39732,-1.87822 0.012,-0.0361 0.024,-0.0841 0.024,-0.0841 0.0602,-0.21668 0.12039,-0.40938 0.18059,-0.60202 0,0 0.0482,-0.1686 0.13244,-0.40935 0.16857,-0.5418 0.50568,-1.52907 0.7224,-1.96252 l 0.0151,-0.0227 c 0.024,-0.0481 0.0722,-0.14455 0.13245,-0.2888 0.19264,-0.40935 0.38528,-0.81874 0.60199,-1.22809 0.012,-0.0481 0.0361,-0.0841 0.0482,-0.12051 0.0722,-0.13254 0.14446,-0.27679 0.21671,-0.40935 0.19264,-0.38528 0.39732,-0.73444 0.58996,-1.0234 0,0 0.0361,-0.0601 0.0843,-0.14455 0.37323,-0.602 0.78259,-1.20399 1.21603,-1.76988 0.024,-0.0481 0.0482,-0.0721 0.0722,-0.10819 0.0481,-0.0721 0.0963,-0.13254 0.14446,-0.19264 0.0241,-0.0247 0.0361,-0.0601 0.0602,-0.0845 0.33712,-0.40935 0.67424,-0.81871 1.0234,-1.21604 0.12039,-0.14455 0.24081,-0.26476 0.3612,-0.39733 0.31304,-0.36117 0.62608,-0.67424 0.80667,-0.83075 l 0.0361,-0.0481 c 0.0482,-0.0361 0.12039,-0.0962 0.20469,-0.18062 0.21671,-0.18062 0.52976,-0.4816 0.87892,-0.78258 0.5418,-0.4816 1.13176,-0.98727 1.45684,-1.16789 0,0 0.0602,-0.0481 0.15651,-0.10819 l 0.024,-0.0123 c 0.0602,-0.0361 0.1445,-0.0962 0.22877,-0.15657 0.49364,-0.33714 1.01135,-0.66222 1.52907,-0.95118 0.16857,-0.1085 0.3612,-0.21668 0.52976,-0.31303 0.0602,-0.0361 0.12039,-0.0601 0.18059,-0.0962 0.24081,-0.13253 0.4816,-0.25274 0.69832,-0.3612 0.0482,-0.0123 0.12039,-0.0601 0.18058,-0.0721 0.0241,-0.0123 0.0963,-0.0481 0.15652,-0.0721 0.31304,-0.14456 0.62608,-0.27679 0.95116,-0.39733 0.31304,-0.13254 0.63812,-0.25275 0.9632,-0.36118 0.28896,-0.10849 0.56588,-0.20466 0.78259,-0.26476 0.0722,-0.0123 0.14447,-0.0361 0.19264,-0.0481 0.0361,0 0.10837,-0.0246 0.10837,-0.0246 0,0 0.1204,-0.0361 0.31304,-0.0721 0.0482,-0.0123 0.0843,-0.0247 0.13245,-0.0361 0.13244,-0.0361 0.26488,-0.0721 0.40935,-0.0962 0.34916,-0.0841 0.73444,-0.16859 1.07156,-0.2287 0.0722,-0.0123 0.14447,-0.0247 0.20469,-0.0247 0.0602,-0.0123 0.13245,-0.0246 0.19264,-0.0361 0.2047,-0.0247 0.38528,-0.0601 0.58996,-0.0721 0.19264,-0.0247 0.38528,-0.0361 0.57792,-0.0481 0.0602,-0.0123 0.13244,-0.0247 0.19264,-0.0247 h 0.10837 c 0.0482,0 0.12039,-0.0123 0.18059,-0.0123 0.27678,-0.0123 0.55385,-0.0247 0.83075,-0.0361 0.19264,0 0.38528,0.0123 0.58997,0.0123 l 0.40936,0.0123 c 0.21668,0.0123 0.4214,0.0247 0.61404,0.0361 0.0601,0.0123 0.13253,0.0123 0.18062,0.0247 0.56589,0.0481 1.15583,0.13254 1.72173,0.22871 l 0.28881,0.0481 c 0,0 0.0481,0.0123 0.0841,0.0123 0.0361,0.0123 0.0721,0.0123 0.1085,0.0247 0.0721,0.0123 0.15657,0.0247 0.21668,0.0481 0.0361,0 0.12051,0.0247 0.12051,0.0247 0.49365,0.10849 0.99932,0.24072 1.48092,0.38527 0.19264,0.0601 0.37323,0.1085 0.52978,0.1686 0.1686,0.0481 0.30113,0.0962 0.40935,0.13254 l 0.0962,0.0481 c 0,0 0.0962,0.0361 0.18062,0.0721 0.4816,0.18061 0.95118,0.38527 1.40868,0.60199 0.0841,0.0361 0.16859,0.0721 0.24072,0.10849 0.19264,0.0962 0.3973,0.19264 0.57792,0.28881 0.20466,0.10818 0.38528,0.19264 0.54179,0.2888 l 0.0481,0.0247 c 0,0 0.0361,0.0247 0.0721,0.0481 0.0481,0.0361 0.12051,0.0721 0.21668,0.13254 0.14456,0.0845 0.31306,0.18062 0.5057,0.31303 0.57792,0.36121 1.32438,0.85486 1.73376,1.26421 l 0.0123,0.0123 c 0.13253,0.12051 0.74648,0.65013 1.07157,0.9632 l 0.0247,0.0246 c 0.0481,0.0361 0.0721,0.0721 0.1085,0.0962 0,0 0.0247,0.0247 0.0601,0.0721 0.34916,0.34916 0.68629,0.72239 1.01134,1.10767 l 0.0481,0.0481 0.0247,0.0361 c 0.0247,0.0247 0.0601,0.0721 0.0601,0.0721 0,0 0.5057,0.63812 0.65017,0.85486 0.0247,0.0361 0.0481,0.0721 0.0481,0.0721 0,0 -0.79466,0.78261 -1.09564,1.09564 m 56.04606,-21.25055 C 197.2516,133.59731 187.5835,125.10915 179.7214,115.07984 156.60466,85.642116 150.07898,64.572157 150.07898,64.572157 c 0.36121,1.167888 -2.23942,5.273515 -2.70897,6.296909 -10.93231,24.079944 -26.62048,44.487684 -44.11456,64.040604 -11.546337,12.88277 -22.117431,28.06518 -21.852554,45.96863 0.252836,17.01248 6.850747,33.94066 18.481359,46.41409 31.917965,34.25371 97.848945,27.25849 109.274875,-22.75554 1.89027,-8.27148 1.74581,-17.00046 -0.83075,-25.10334 -1.85415,-5.79124 -3.57589,-10.84804 -7.63334,-15.57973 -3.87686,-4.51501 -8.92161,-8.06679 -14.56836,-9.98114 -11.57042,-3.92504 -25.2117,-0.903 -34.037,7.53702 -4.12973,-5.58655 -10.99251,-8.95774 -17.9516,-9.2467 -6.95921,-0.28881 -13.89423,2.37187 -19.20386,6.88685 -6.3571,5.38188 -10.41458,13.7617 -9.49954,22.04521 1.2642,11.32961 10.94434,19.68535 20.33552,26.12673 9.41534,6.44137 19.84195,12.8948 24.21246,23.44183 l 12.10017,-22.83984 c -9.19852,-4.97251 -14.77302,-15.90479 -13.40047,-26.25918 1.37255,-10.35436 9.59586,-19.45659 19.76963,-21.86459 11.26941,-2.66083 23.68261,2.96184 30.16014,12.5577 6.48955,9.59585 7.2962,22.44251 3.26282,33.30257 -4.03338,10.86006 -12.4975,19.75757 -22.52677,25.56086 -19.11949,11.0888 -44.53586,10.76372 -62.90896,-1.52909 C 98.066218,217.2992 88.048961,193.3517 93.009433,171.80014 c 3.78055,-16.43456 14.688767,-30.06379 25.825737,-42.54924 12.01589,-13.47275 21.11822,-27.12608 31.01505,-41.826884 9.13836,12.076096 16.63925,24.874604 27.02977,36.348684 10.35436,11.45003 21.00973,22.90003 28.29391,36.51724 4.74377,8.86142 7.93434,18.77031 8.29555,28.85981 0.28881,8.16311 -1.48092,16.94023 -3.66015,24.76624 l 0.26476,0.19264 c 12.62991,-22.20173 9.86071,-50.03814 -5.21332,-70.30142"
     id="path9743"
     style="stroke-width:3.08223" />
</svg>
